<svg xmlns="http://www.w3.org/2000/svg" width="123" height="22" viewBox="0 0 123 22" fill="none">
  <path d="M8.67865 7.98309H17.6312V1.02825H25.5909V20.9662H17.6312V13.0076H8.67865V20.9662H0.713379V1.02825H8.67865V7.98309Z" fill="#9D9FA2"/>
  <path d="M46.1107 16.4657C48.7044 16.4657 50.2049 15.6604 50.2049 13.0903V1.02825H58.1701V13.3992C58.1701 19.7363 54.2991 21.6666 46.1107 21.6666C37.9223 21.6666 34.0512 19.7363 34.0512 13.3992V1.02825H42.0165V13.0903C42.0165 15.6604 43.5169 16.4657 46.1107 16.4657Z" fill="#9D9FA2"/>
  <path d="M74.3601 7.31573L83.8761 8.7056C87.8866 9.29574 90.3743 11.1379 90.3743 14.5132C90.3743 19.3723 86.3638 21.6611 77.4113 21.6611C71.2867 21.6611 64.5932 20.8228 64.5653 14.96H74.1649C74.1928 15.6273 74.4438 16.0741 75.0127 16.3829C75.604 16.6642 76.4742 16.8021 77.718 16.8021C80.2002 16.8021 80.8807 16.1348 80.8807 15.1861C80.8807 14.6015 80.5126 14.0114 79.4416 13.8459L70.3496 12.5057C66.4562 11.9155 64.8442 9.68181 64.8442 6.89105C64.8442 1.72869 69.9592 0.333313 76.5076 0.333313C85.4881 0.333313 89.1863 2.64976 89.4707 6.86899H80.2058C80.2058 6.05823 79.7261 5.55082 78.9898 5.27506C78.287 4.97171 77.3834 4.85589 76.5076 4.85589C74.1314 4.85589 73.3171 5.44052 73.3171 6.27885C73.3171 6.84141 73.5681 7.19991 74.3601 7.31573Z" fill="#9D9FA2"/>
  <path d="M106.048 7.98309H114.995V1.02825H122.961V20.9662H114.995V13.0076H106.048V20.9662H98.083V1.02825H106.048V7.98309Z" fill="#9D9FA2"/>
</svg>