<svg xmlns="http://www.w3.org/2000/svg" width="121" height="16" viewBox="0 0 121 16" fill="none">
  <path fill-rule="evenodd" clip-rule="evenodd" d="M93.5633 7.62183H88.7662C88.7662 7.62183 88.6988 5.39577 86.4738 5.39577C84.2633 5.39577 84.3039 7.55469 84.3039 8.45868V15.5411H78.7415V6.81267C78.7415 6.81267 78.8893 0.471581 86.5811 0.471581C86.5811 0.471581 91.9551 -0.203296 94.2461 5.17981C94.2461 5.17981 95.855 0.471581 102.381 0.471581H108.519C108.519 0.471581 116.038 0.417594 116.038 7.51385H110.007C110.007 7.51385 109.832 5.75986 107.688 5.75986H103.039C103.039 5.75986 99.9824 5.5439 99.9824 8.02606C99.9824 10.5082 101.699 10.6571 103.467 10.6571H120.5V15.5404H102.207C102.207 15.5404 93.5633 16.2693 93.5633 7.62183ZM62.5934 10.684H69.535V15.5404H61.32C61.32 15.5404 53.5609 15.204 53.5609 8.40399C53.5609 1.59084 60.1807 0.471581 62.8746 0.471581H76.1274V15.5411H70.3787V5.81385H62.4187C62.4187 5.81385 59.927 5.7737 59.927 8.20188C59.927 10.6162 62.1513 10.684 62.5934 10.684ZM7.79663 5.78685H0.0505371V0.471581H11.2138C11.2138 0.471581 14.5781 0.633554 14.5781 3.80375V8.33685L23.3287 0.471581H26.6517C26.6517 0.471581 29.8275 0.444585 29.8275 3.95257V8.43168L38.6724 0.471581H42.1837C42.1837 0.471581 45.4002 0.633553 45.4002 4.34365V9.98286C45.4002 9.98286 45.4002 10.5089 45.9763 10.5089H52.9049V15.5411H43.4303C43.4303 15.5411 39.276 15.9467 39.276 11.6697V8.64695C39.276 8.64695 39.2492 7.94577 38.5788 8.61996L31.0211 15.5404H27.6837C27.6837 15.5404 23.8375 15.6754 23.8375 11.696V8.33685C23.8375 8.33685 23.9049 7.70212 23.3816 8.25587L15.5159 15.5404H12.2727C12.2727 15.5404 8.66777 15.892 8.66777 11.8711V6.48803C8.66777 6.48873 8.76128 5.78685 7.79663 5.78685Z" fill="#9D9FA2"/>
</svg>