<svg xmlns="http://www.w3.org/2000/svg" width="101" height="36" viewBox="0 0 101 36" fill="none">
  <path fill-rule="evenodd" clip-rule="evenodd" d="M12.9351 1.79889C6.38405 9.34845 0.102803 18.7106 0.039818 25.7084C0.015287 28.3414 0.871882 30.64 2.92652 32.381C5.88349 34.8884 9.14147 35.7726 12.3835 35.7778C17.1213 35.7843 21.826 33.9086 25.5096 32.4623C31.7133 30.0278 100.289 0.804775 100.289 0.804775C100.951 0.479475 100.827 0.0741538 99.9988 0.27649C99.6647 0.358466 25.3432 20.123 25.3432 20.123C23.9354 20.5137 22.4807 20.7181 21.0178 20.7307C15.306 20.7639 10.2235 17.6527 10.2646 11.0966C10.2805 8.5313 11.0807 5.4377 12.9351 1.79889Z" fill="#9D9FA2"/>
</svg>