<svg xmlns="http://www.w3.org/2000/svg" width="99" height="32" viewBox="0 0 99 32" fill="none">
  <path fill-rule="evenodd" clip-rule="evenodd" d="M31.9049 26.0541C31.9049 26.8287 32.5619 27.4553 33.3359 27.4742C34.1129 27.4553 34.7715 26.8287 34.7707 26.0541L34.7776 0.744019H43.2212V28.6428C43.2212 30.0101 42.1122 31.1259 40.7263 31.1259H25.9562C24.578 31.1259 23.456 30.0108 23.456 28.6428V0.744019H31.9064L31.9049 26.0541ZM48.8395 0.744019H61.6273H74.4204C74.7821 0.744613 75.1402 0.815553 75.4741 0.952782C75.808 1.09001 76.1113 1.29084 76.3665 1.5438C76.6218 1.79676 76.8241 2.09688 76.9618 2.42703C77.0995 2.75718 77.17 3.11088 77.1692 3.46792V31.1259H68.7095V5.7562C68.7034 4.97859 68.0579 4.36255 67.277 4.36255C66.4885 4.36255 65.8567 4.96349 65.8445 5.73431V31.1267H57.4223V5.73506C57.404 4.96425 56.7707 4.3633 55.9814 4.3633C55.7948 4.36201 55.6098 4.39705 55.4369 4.46641C55.264 4.53578 55.1067 4.63811 54.9739 4.76756C54.8412 4.897 54.7356 5.05101 54.6632 5.22079C54.5907 5.39056 54.553 5.57276 54.552 5.75696V31.1259H46.0931V3.46792C46.092 3.11099 46.1621 2.75734 46.2996 2.42721C46.4371 2.09707 46.6391 1.79693 46.8942 1.54394C47.1493 1.29095 47.4524 1.09009 47.7862 0.952829C48.12 0.815573 48.4779 0.744612 48.8395 0.744019ZM9.28235 23.4917H17.8193C18.1835 23.492 18.5443 23.4213 18.8808 23.2837C19.2174 23.146 19.5231 22.9441 19.7804 22.6896C20.0377 22.435 20.2415 22.1328 20.3802 21.8003C20.5189 21.4678 20.5898 21.1116 20.5887 20.752V3.48C20.5887 1.96781 19.3978 0.744019 17.8728 0.744019H0.835693V31.1259H9.28235V23.4917ZM12.0454 5.26063C12.1158 5.43499 12.1508 5.62135 12.1481 5.80905V18.3021C12.155 19.1454 11.4628 19.7298 10.7187 19.7298H9.28235V4.36255H10.7187C10.9088 4.36461 11.0967 4.40371 11.2715 4.47757C11.4464 4.55143 11.6047 4.65862 11.7375 4.79299C11.8703 4.92736 11.9749 5.08628 12.0454 5.26063ZM89.9759 23.6427V31.256H98.5756V3.65182C98.5767 3.29536 98.505 2.9422 98.3647 2.61255C98.2245 2.28291 98.0184 1.98326 97.7583 1.73074C97.4982 1.47823 97.1892 1.27781 96.8489 1.14096C96.5086 1.00411 96.1438 0.933523 95.7753 0.933228H81.2508C79.7069 0.933228 78.4528 2.14484 78.4528 3.65182V31.256H87.0494V23.6427H89.9759ZM89.9759 5.9251V19.888H87.0494V5.94695C87.0553 5.57667 87.2117 5.22352 87.4847 4.96392C87.7578 4.70432 88.1255 4.55914 88.5084 4.55978C89.3107 4.55978 89.9549 5.15353 89.9759 5.9251Z" fill="#9D9FA2"/>
</svg>