<svg xmlns="http://www.w3.org/2000/svg" width="115" height="40" viewBox="0 0 115 40" fill="none">
  <path fill-rule="evenodd" clip-rule="evenodd" d="M97.8768 2.03904C97.1104 1.27209 96.0415 0.888916 95.0556 0.888916H19.6474C18.6747 0.888916 17.6064 1.31334 16.8669 2.03904L1.73273 17.2394C0.171789 18.787 0.199289 21.3073 1.76023 22.8543L16.9081 37.9596C17.6339 38.6859 18.6747 39.1098 19.6474 39.1098H95.0831C96.0415 39.1373 97.1098 38.7541 97.8768 37.9871L113.024 22.8274C114.544 21.3073 114.544 18.7601 113.024 17.24L97.8768 2.03904ZM96.8079 35.8226C96.1234 36.5076 95.2195 36.837 94.3149 36.837V36.8376H20.1538C19.3042 36.8089 18.3728 36.4532 17.7158 35.7957L4.3626 22.4574C3.00731 21.1016 2.97981 18.897 4.3357 17.5413L17.6889 4.17551C18.3459 3.5323 19.2773 3.16227 20.1544 3.16227H94.3149C95.1919 3.18977 96.1234 3.5317 96.8079 4.20301L110.161 17.5688C110.812 18.2211 111.178 19.1051 111.178 20.0268C111.178 20.9486 110.812 21.8326 110.161 22.4849L96.8079 35.8226ZM35.2565 24.9489C36.8802 27.9371 34.9152 31.2829 31.3951 31.2829V31.2823H20.7928C20.2198 31.2541 19.947 30.965 19.9196 30.4007V27.5921C19.9206 27.4636 19.9469 27.3365 19.9969 27.2182C20.047 27.1 20.1198 26.993 20.2112 26.9033C20.3026 26.8137 20.4106 26.7433 20.5292 26.6962C20.6477 26.649 20.7744 26.6261 20.9018 26.6287H27.6015C28.106 26.6287 28.243 26.2291 28.0518 25.94C27.324 25.0165 26.3333 23.8999 25.2598 22.69C23.0525 20.2023 20.4953 17.3202 19.1548 14.9115C18.0636 12.9564 18.9636 8.71571 22.4707 8.71571H32.6364C33.1689 8.71571 33.5644 9.17007 33.5918 9.67972V12.475C33.5918 13.067 33.3464 13.3146 32.7186 13.3423H26.7831C26.1279 13.3423 26.0457 13.8381 26.278 14.0857C27.2221 15.2288 28.3231 16.4451 29.4396 17.6784C31.7121 20.1887 34.0488 22.7699 35.2565 24.9489ZM43.1028 21.8928V30.3466C43.1028 30.8562 42.6245 31.2829 42.2028 31.2829H38.1227C37.6992 31.2829 37.2489 30.8562 37.2215 30.3742L37.1947 9.68032C37.1947 9.14363 37.5491 8.71691 38.2043 8.68926H42.0795C42.6525 8.68926 43.1028 9.14302 43.1028 9.68032V16.7295H47.7148V9.68032C47.7148 9.25361 48.0561 8.71691 48.7518 8.68926H52.6413C53.2822 8.68926 53.6235 9.14302 53.6235 9.68032L53.6509 30.3466C53.6509 30.9109 53.2006 31.2829 52.6955 31.2829H48.6154C48.2467 31.2829 47.6874 30.8286 47.6874 30.3466V21.8928H43.1028ZM88.5687 31.2829H75.8102C75.3325 31.2553 74.8554 30.7456 74.828 30.3466V9.68032C74.828 9.22596 75.3325 8.74335 75.8376 8.71631H88.5413C89.1554 8.71631 89.4687 9.06069 89.4687 9.65268V12.4756C89.4961 12.9853 89.0464 13.3429 88.6229 13.3429H80.9678V17.2939H86.0033C86.5078 17.3486 86.9307 17.7482 86.9033 18.175V21.0388C86.9307 21.4661 86.5632 21.9475 86.0575 21.9198H80.9678V26.6011H88.5961C89.1274 26.6011 89.5235 27.0008 89.5235 27.5651V30.3466C89.5235 31.0347 89.1274 31.2553 88.5687 31.2829ZM95.9366 31.2553H92.1711C91.7202 31.2553 91.2699 30.9109 91.2431 30.3742V9.65268C91.2431 9.06069 91.5832 8.74335 92.1979 8.71631H95.8818C96.4143 8.71631 96.783 9.14302 96.8104 9.65268V30.3742C96.8104 30.9386 96.4417 31.2553 95.9366 31.2553ZM55.984 11.9245C55.7386 17.2958 55.7386 22.6758 55.984 28.0471C55.984 29.4655 57.5392 31.3106 59.1903 31.3106H69.2064C70.9123 31.3106 72.3317 29.6031 72.3317 28.0471C72.6045 22.5533 72.6045 17.1839 72.3317 11.8968C72.2906 10.5061 70.6389 8.71631 69.2064 8.71631H59.2177C57.4719 8.7716 56.0388 10.6167 55.984 11.9245ZM65.7404 26.8499C64.6623 26.9046 63.6248 26.9046 62.6152 26.8499C62.2471 26.8217 61.879 26.4779 61.8516 25.7759C61.633 21.9204 61.5377 18.0656 61.8516 14.1969C61.9064 13.522 62.1929 13.1776 62.6152 13.1223C63.6253 13.0123 64.6897 13.0123 65.7404 13.0946C66.0817 13.0946 66.3545 13.549 66.3813 14.1963C66.6404 18.065 66.6404 21.8928 66.3813 25.7753C66.3545 26.3402 66.1907 26.8223 65.7404 26.8499Z" fill="#9D9FA2"/>
</svg>