<svg xmlns="http://www.w3.org/2000/svg" width="121" height="34" viewBox="0 0 121 34" fill="none">
  <path d="M82.3896 9.26373H87.1488V10.1861C90.0129 9.01573 92.7955 8.45516 95.0504 10.9947C96.3348 10.4511 97.5038 9.74106 98.7712 9.44549C102.46 8.57067 105.027 10.8044 104.567 14.5704C104.107 18.3364 103.379 22.0871 102.772 25.8615H97.9483C98.2113 24.1798 98.4573 22.5491 98.739 20.9167C99.0342 19.1042 99.3481 17.29 99.645 15.4809C99.6426 15.4528 99.6479 15.4246 99.6603 15.3994C99.8419 14.0302 99.3804 12.9923 98.4591 12.729C97.4546 12.4488 96.2041 13.0093 95.7596 14.2443C95.3151 15.4792 95.1488 16.7923 94.9112 18.085C94.4989 20.509 94.1376 22.9636 93.7083 25.3893C93.6665 25.5095 93.5972 25.6182 93.5058 25.7067C93.4145 25.7952 93.3037 25.8611 93.1823 25.8989C91.7656 25.9482 90.3335 25.9142 88.8184 25.9142C89.1153 24.0354 89.4122 22.206 89.7075 20.3765C89.9874 18.6133 90.3013 16.8653 90.5558 15.1106C90.7034 14.1542 90.2759 13.2149 89.5514 12.853C88.8269 12.4912 87.8886 12.7205 87.1641 13.4289C86.2428 14.336 86.1936 15.5387 85.9951 16.6921C85.4861 19.7497 85.0076 22.8073 84.4969 25.8904H79.6901C80.5962 20.3238 81.4852 14.8354 82.3896 9.26373ZM38.9931 24.1968C38.4841 27.3615 37.9886 30.3783 37.4779 33.4444H32.6542C33.9708 25.3672 35.2722 17.341 36.5888 9.28072H41.4126C41.3634 9.6918 41.2972 10.0706 41.2649 10.4001C42.2524 10.0213 43.2077 9.49475 44.2274 9.28072C47.6853 8.5384 50.5493 10.3509 51.5232 13.7635C52.9213 18.6574 49.4617 24.5094 44.4751 25.622C42.4662 26.0433 40.6558 25.6305 38.9931 24.1968ZM46.6638 17.076C46.6808 15.2074 45.9733 13.9776 44.7975 13.5325C43.6217 13.0875 42.2626 13.5818 41.2582 14.8014C40.7902 15.3562 40.4395 16.0002 40.2272 16.6945C40.0149 17.3888 39.9454 18.1189 40.023 18.8409C40.1383 20.0605 40.649 21.0814 41.8893 21.5095C43.077 21.9223 44.095 21.4772 44.9688 20.6704C45.9826 19.741 46.5913 18.4502 46.6638 17.076ZM0.5 21.7898C1.60286 20.8674 2.67347 19.9773 3.74409 19.0719C4.22087 19.6172 4.63316 20.176 5.1269 20.6381C6.3146 21.7762 7.71098 21.7915 9.19899 21.2819C10.631 20.7876 11.5523 19.8312 11.8153 18.2973C11.985 17.2594 11.6847 16.3863 10.7786 15.8087C10.1373 15.3977 9.44501 15.0664 8.76972 14.7046C8.35912 14.4906 7.93155 14.2918 7.51925 14.0948C1.71823 11.258 2.67347 4.89813 6.85584 1.96111C9.63843 0.0161227 12.5194 0.262431 15.4174 1.64855C16.0418 1.94582 16.6187 2.3569 17.2838 2.75269C16.3455 3.92308 15.4734 5.01024 14.6166 6.06512C13.8429 5.72538 13.1184 5.3245 12.3447 5.09347C10.5173 4.53291 8.87152 5.29052 8.03166 7.00619C7.47175 8.15959 7.71777 9.19748 8.82062 9.84128C9.92348 10.4851 11.0603 10.9777 12.1631 11.5705C14.2212 12.6764 15.7262 14.2409 16.0486 16.6666C16.5576 20.3918 14.6912 23.621 11.2418 25.16C7.15107 26.9504 2.97209 25.6798 0.5 21.7898ZM19.7304 9.26373H24.5711C23.9942 12.7902 23.4513 16.2861 22.8744 19.7633C22.6436 21.1647 23.0441 21.7083 24.4388 21.8238C26.183 21.9715 26.9838 21.3142 27.2536 19.6155C27.7965 16.1858 28.3734 12.7579 28.9503 9.26373H33.774C33.4448 11.3565 33.1157 13.417 32.7696 15.4945C32.5388 16.9282 32.2911 18.3619 32.0451 19.7955C31.5021 23.0094 29.3609 25.1702 26.1677 25.6968C24.3556 25.994 22.5622 26.0093 20.8163 25.357C18.692 24.5501 17.5739 22.5559 17.9523 20.2967C18.5444 16.6649 19.1213 13.0059 19.7304 9.26373ZM79.2626 18.2803H68.9127C68.782 19.9943 69.6049 21.7083 70.8401 22.104C72.8982 22.7835 73.9672 21.3957 74.9716 19.9111C76.1084 20.3408 77.2282 20.7604 78.3463 21.18C76.9635 24.1153 72.8321 27.0319 68.7159 25.6645C65.8179 24.7081 64.4351 22.4506 64.1551 19.5153C63.714 14.9832 67.0786 10.3849 71.4747 9.39623C75.294 8.54689 78.6535 10.7552 79.2286 14.6621C79.3932 15.807 79.2626 17.0267 79.2626 18.2803ZM69.3504 15.3127H75.311C74.8172 13.4442 73.845 12.4606 72.5962 12.4454C71.2287 12.4284 69.8951 13.5988 69.3504 15.3127ZM116.553 19.9111C117.688 20.3408 118.791 20.7604 119.895 21.1647C117.935 25.1855 112.173 27.725 108.271 24.5756C106.031 22.7631 105.358 20.2899 105.802 17.555C106.411 13.6803 108.551 10.8792 112.321 9.59328C116.651 8.11033 120.635 10.8622 120.915 15.4452C120.981 16.3676 120.932 17.29 120.932 18.2803H110.477C110.297 19.8958 111.169 21.5927 112.387 22.104C113.704 22.6799 114.841 22.104 116.553 19.9111ZM116.783 15.362C116.7 13.8332 115.499 12.4742 114.198 12.4284C112.783 12.3791 111.12 13.879 110.974 15.362H116.783ZM64.7744 9.24675C64.3469 10.6974 63.9515 12.0326 63.5392 13.434C63.3624 13.4101 63.1868 13.3772 63.0133 13.3355C60.7244 12.6254 58.7494 13.7958 58.3202 16.1858C57.7942 19.1042 57.3497 22.0208 56.8712 24.9391C56.822 25.2347 56.7558 25.532 56.7015 25.8615H51.8999C52.8059 20.3068 53.695 14.8014 54.5993 9.26373H59.3738C59.3586 9.64254 59.3246 10.0061 59.2924 10.4341C60.9552 9.1805 62.7825 9.01573 64.7744 9.24675Z" fill="#9D9FA2"/>
</svg>